<?xml version="1.0" encoding="UTF-8" standalone="no"?>
<!-- Created with Inkscape (http://www.inkscape.org/) -->

<svg
   xmlns:dc="http://purl.org/dc/elements/1.1/"
   xmlns:cc="http://creativecommons.org/ns#"
   xmlns:rdf="http://www.w3.org/1999/02/22-rdf-syntax-ns#"
   xmlns:svg="http://www.w3.org/2000/svg"
   xmlns="http://www.w3.org/2000/svg"
   xmlns:sodipodi="http://sodipodi.sourceforge.net/DTD/sodipodi-0.dtd"
   xmlns:inkscape="http://www.inkscape.org/namespaces/inkscape"
   width="450"
   height="450"
   viewBox="0 0 119.0625 119.0625"
   version="1.1"
   id="svg8"
   inkscape:version="0.92.4 (5da689c313, 2019-01-14)"
   sodipodi:docname="SectionClock.svg"
   inkscape:export-filename="C:\Users\Daniel\1 - CICCC Class\A1-0919\Final Project\FinalProject\Assets\Assets\SectionClock.png"
   inkscape:export-xdpi="96"
   inkscape:export-ydpi="96">
  <defs
     id="defs2" />
  <sodipodi:namedview
     id="base"
     pagecolor="#ffffff"
     bordercolor="#666666"
     borderopacity="1.0"
     inkscape:pageopacity="0.0"
     inkscape:pageshadow="2"
     inkscape:zoom="11.2"
     inkscape:cx="89.769692"
     inkscape:cy="417.45604"
     inkscape:document-units="mm"
     inkscape:current-layer="layer1"
     showgrid="false"
     units="px"
     inkscape:snap-grids="true"
     inkscape:pagecheckerboard="true"
     inkscape:window-width="1920"
     inkscape:window-height="1017"
     inkscape:window-x="-8"
     inkscape:window-y="-8"
     inkscape:window-maximized="1" />
  <metadata
     id="metadata5">
    <rdf:RDF>
      <cc:Work
         rdf:about="">
        <dc:format>image/svg+xml</dc:format>
        <dc:type
           rdf:resource="http://purl.org/dc/dcmitype/StillImage" />
        <dc:title></dc:title>
      </cc:Work>
    </rdf:RDF>
  </metadata>
  <g
     inkscape:label="Layer 1"
     inkscape:groupmode="layer"
     id="layer1"
     transform="translate(0,-177.93751)">
    <path
       style="fill:#00ff00;stroke-width:0.35714287;paint-order:markers fill stroke"
       d="M 1.0957031 -0.265625 C 1.1290423 8.1583722 1.0964687 16.611709 1.0839844 25.054688 A 424.99994 424.99994 0 0 1 94.666016 36.306641 A 424.99994 424.99994 0 0 1 98.666016 37.269531 A 13.214286 13.214286 0 0 0 99.732422 37.322266 A 13.214286 13.214286 0 0 0 100.66602 37.289062 A 13.214286 13.214286 0 0 0 101.97852 37.128906 A 13.214286 13.214286 0 0 0 103.26758 36.839844 A 13.214286 13.214286 0 0 0 104.51953 36.423828 A 13.214286 13.214286 0 0 0 105.72656 35.884766 A 13.214286 13.214286 0 0 0 106.87109 35.226562 A 13.214286 13.214286 0 0 0 107.94531 34.458984 A 13.214286 13.214286 0 0 0 108.93945 33.585938 A 13.214286 13.214286 0 0 0 109.83984 32.619141 A 13.214286 13.214286 0 0 0 110.63867 31.568359 A 13.214286 13.214286 0 0 0 111.32812 30.443359 A 13.214286 13.214286 0 0 0 111.90234 29.253906 A 13.214286 13.214286 0 0 0 112.35547 28.011719 A 13.214286 13.214286 0 0 0 112.68359 26.732422 A 13.214286 13.214286 0 0 0 112.88086 25.425781 A 13.214286 13.214286 0 0 0 112.94727 24.107422 A 13.214286 13.214286 0 0 0 112.91406 23.171875 A 13.214286 13.214286 0 0 0 112.75391 21.861328 A 13.214286 13.214286 0 0 0 112.46484 20.572266 A 13.214286 13.214286 0 0 0 112.04883 19.318359 A 13.214286 13.214286 0 0 0 111.50977 18.113281 A 13.214286 13.214286 0 0 0 110.85156 16.966797 A 13.214286 13.214286 0 0 0 110.08398 15.892578 A 13.214286 13.214286 0 0 0 109.21094 14.900391 A 13.214286 13.214286 0 0 0 108.24414 14 A 13.214286 13.214286 0 0 0 107.19336 13.201172 A 13.214286 13.214286 0 0 0 106.06836 12.509766 A 13.214286 13.214286 0 0 0 105.80859 12.384766 C 103.73101 11.876249 101.65385 11.373647 99.566406 10.898438 C 86.44237 7.9107246 73.146312 5.533315 59.818359 3.71875 C 40.368251 1.1252149 20.647171 -0.18713043 1.0957031 -0.265625 z "
       transform="matrix(0.26458333,0,0,0.26458333,0,177.93751)"
       id="path819" />
  </g>
</svg>
