<?xml version="1.0" encoding="UTF-8" standalone="no"?>
<!-- Created with Inkscape (http://www.inkscape.org/) -->

<svg
   xmlns:dc="http://purl.org/dc/elements/1.1/"
   xmlns:cc="http://creativecommons.org/ns#"
   xmlns:rdf="http://www.w3.org/1999/02/22-rdf-syntax-ns#"
   xmlns:svg="http://www.w3.org/2000/svg"
   xmlns="http://www.w3.org/2000/svg"
   xmlns:sodipodi="http://sodipodi.sourceforge.net/DTD/sodipodi-0.dtd"
   xmlns:inkscape="http://www.inkscape.org/namespaces/inkscape"
   width="450"
   height="450"
   viewBox="0 0 119.0625 119.0625"
   version="1.1"
   id="svg8"
   inkscape:version="0.92.4 (5da689c313, 2019-01-14)"
   sodipodi:docname="SectionAnti.svg"
   inkscape:export-filename="C:\Users\Daniel\1 - CICCC Class\A1-0919\Final Project\FinalProject\Assets\Assets\SectionFlat.png"
   inkscape:export-xdpi="96"
   inkscape:export-ydpi="96">
  <defs
     id="defs2" />
  <sodipodi:namedview
     id="base"
     pagecolor="#ffffff"
     bordercolor="#666666"
     borderopacity="1.0"
     inkscape:pageopacity="0.0"
     inkscape:pageshadow="2"
     inkscape:zoom="11.2"
     inkscape:cx="11.468685"
     inkscape:cy="421.83674"
     inkscape:document-units="mm"
     inkscape:current-layer="layer1"
     showgrid="false"
     units="px"
     inkscape:snap-grids="true"
     inkscape:pagecheckerboard="true"
     inkscape:window-width="1920"
     inkscape:window-height="1017"
     inkscape:window-x="-8"
     inkscape:window-y="-8"
     inkscape:window-maximized="1" />
  <metadata
     id="metadata5">
    <rdf:RDF>
      <cc:Work
         rdf:about="">
        <dc:format>image/svg+xml</dc:format>
        <dc:type
           rdf:resource="http://purl.org/dc/dcmitype/StillImage" />
        <dc:title />
      </cc:Work>
    </rdf:RDF>
  </metadata>
  <g
     inkscape:label="Layer 1"
     inkscape:groupmode="layer"
     id="layer1"
     transform="translate(0,-177.93751)">
    <path
       style="fill:#00ff00;stroke-width:0.35714287;paint-order:markers fill stroke"
       d="M 11.123047 0.091796875 A 13.169643 13.169643 0 0 0 10.986328 0.12304688 A 13.169643 13.169643 0 0 0 9.7363281 0.53710938 A 13.169643 13.169643 0 0 0 8.5351562 1.0761719 A 13.169643 13.169643 0 0 0 7.3925781 1.7304688 A 13.169643 13.169643 0 0 0 6.3222656 2.4960938 A 13.169643 13.169643 0 0 0 5.3339844 3.3652344 A 13.169643 13.169643 0 0 0 4.4355469 4.328125 A 13.169643 13.169643 0 0 0 3.6386719 5.3769531 A 13.169643 13.169643 0 0 0 2.9511719 6.4980469 A 13.169643 13.169643 0 0 0 2.3789062 7.6835938 A 13.169643 13.169643 0 0 0 1.9277344 8.9199219 A 13.169643 13.169643 0 0 0 1.6015625 10.195312 A 13.169643 13.169643 0 0 0 1.4042969 11.498047 A 13.169643 13.169643 0 0 0 1.3398438 12.8125 A 13.169643 13.169643 0 0 0 1.3730469 13.744141 A 13.169643 13.169643 0 0 0 1.53125 15.050781 A 13.169643 13.169643 0 0 0 1.8183594 16.335938 A 13.169643 13.169643 0 0 0 2.234375 17.583984 A 13.169643 13.169643 0 0 0 2.7714844 18.787109 A 13.169643 13.169643 0 0 0 3.4277344 19.927734 A 13.169643 13.169643 0 0 0 4.1933594 20.998047 A 13.169643 13.169643 0 0 0 5.0625 21.988281 A 13.169643 13.169643 0 0 0 6.0253906 22.884766 A 13.169643 13.169643 0 0 0 7.0722656 23.681641 A 13.169643 13.169643 0 0 0 8.1953125 24.369141 A 13.169643 13.169643 0 0 0 9.3808594 24.943359 A 13.169643 13.169643 0 0 0 10.617188 25.394531 A 13.169643 13.169643 0 0 0 11.636719 25.654297 A 424.99994 424.99994 0 0 1 15.886719 25.894531 A 424.99994 424.99994 0 0 1 109.70312 39.923828 C 111.93756 31.643805 114.11629 23.347214 116.22266 15.037109 C 97.775281 9.9589213 78.818927 6.3056264 59.818359 3.71875 C 46.214788 1.9048095 32.487468 0.94192602 18.769531 0.36523438 C 16.218788 0.25800307 13.671564 0.15691502 11.123047 0.091796875 z "
       transform="matrix(0.26458333,0,0,0.26458333,0,177.93751)"
       id="path824" />
  </g>
</svg>
